<svg xmlns="http://www.w3.org/2000/svg" xmlns:xlink="http://www.w3.org/1999/xlink" width="500" zoomAndPan="magnify" viewBox="0 0 375 375" height="500" preserveAspectRatio="xMidYMid meet" version="1"><defs><clipPath id="740a7bf585"><path d="M 78 59.984375 L 312 59.984375 L 312 108 L 78 108 Z M 78 59.984375" clip-rule="nonzero"/></clipPath><clipPath id="f915d0259f"><path d="M 72 133 L 314 133 L 314 314.984375 L 72 314.984375 Z M 72 133" clip-rule="nonzero"/></clipPath></defs><g clip-path="url(#740a7bf585)"><path fill="#fff" d="M 79.378906 62.535156 L 122.980469 106.652344 C 124 107.671875 125.019531 107.925781 126.546875 107.925781 L 310.386719 107.925781 C 311.660156 107.925781 312.425781 106.394531 311.152344 105.121094 L 268.0625 61.515625 C 267.039062 60.496094 266.019531 59.984375 263.980469 59.984375 L 80.398438 59.984375 C 78.613281 59.984375 78.359375 61.515625 79.378906 62.535156" fill-opacity="1" fill-rule="nonzero"/></g><g clip-path="url(#f915d0259f)"><path fill="#fff" d="M 73.003906 312.945312 C 72.75 313.964844 73.257812 314.984375 74.53125 314.984375 L 255.820312 314.984375 C 257.605469 314.984375 258.371094 314.222656 258.882812 312.691406 L 313.703125 135.722656 C 314.210938 133.9375 313.445312 133.425781 311.917969 133.425781 L 130.117188 133.425781 C 128.589844 133.425781 128.078125 133.9375 127.566406 135.210938 Z M 73.003906 312.945312" fill-opacity="1" fill-rule="nonzero"/></g><path fill="#fff" d="M 59.234375 261.945312 C 59.234375 263.984375 61.785156 263.984375 62.292969 261.945312 L 103.855469 126.539062 C 104.367188 125.011719 104.367188 123.992188 103.089844 122.714844 L 61.785156 81.660156 C 60.765625 80.640625 59.234375 81.152344 59.234375 82.425781 Z M 59.234375 261.945312" fill-opacity="1" fill-rule="nonzero"/></svg>