<svg fill="none" height="785px" viewBox="0 0 979 785" width="979px" xmlns="http://www.w3.org/2000/svg" xmlns:xlink="http://www.w3.org/1999/xlink" transform="rotate(0) scale(1, 1)"><linearGradient id="a" gradientUnits="userSpaceOnUse" x1="738.261" x2="514.95" y1="384.02" y2="-568.829"><stop offset="0" stop-color="#9d85ff" data-originalstopcolor="#9d85ff"/><stop offset="1" stop-color="#f8fafc" data-originalstopcolor="#f8fafc"/></linearGradient><linearGradient id="b" gradientUnits="userSpaceOnUse" x1="1276.84" x2="514.868" y1="1301.35" y2="-325.532"><stop offset=".271019" stop-color="#9d85ff" data-originalstopcolor="#9d85ff"/><stop offset="1" stop-color="#f8fafc" data-originalstopcolor="#f8fafc"/></linearGradient><path d="m0 22.5541c0-19.06793 22.2124-29.50006 36.8738-17.31797l387.8032 322.22387c37.5 31.159 91.869 31.159 129.369 0l387.804-322.22382c14.661-12.18209 36.873-1.74997 36.873 17.31792v661.1459c0 55.946-45.33 101.3-101.247 101.3h-776.229c-55.9171 0-101.247-45.354-101.247-101.3z" fill="#f8fafc"/><g clip-rule="evenodd" fill-rule="evenodd"><path d="m621.492 271.42.054.044-195.302 172.607c-33.269 29.404-82.998 30.145-117.128 1.746l-309.116-257.213v-166.0499c0-19.06793 22.2124-29.50006 36.8738-17.31797l387.8032 322.22387c37.5 31.159 91.869 31.159 129.369 0z" fill="url(#a)"/><path d="m770.604 147.526v637.474h106.872c55.917 0 101.247-45.358 101.247-101.301v-661.1442c0-19.068-22.213-29.50195-36.874-17.31756z" fill="url(#b)"/></g></svg>
